<svg width="68" height="68" viewBox="0 0 68 68" fill="none" xmlns="http://www.w3.org/2000/svg">
<g id="razor-barber-svgrepo-com 1" clip-path="url(#clip0)">
<g id="Group">
<g id="Group_2">
<g id="Group_3">
<path id="Vector" d="M29.4403 35.3605L59.6916 65.6117L62.8755 62.4278L32.6242 32.1766L29.4403 35.3605Z" fill="#E7C368"/>
<path id="Vector_2" d="M65.2704 48.8989L33.0329 16.6613C33.4438 16.2954 33.8096 15.8969 34.0766 15.4375L35.0155 13.8286C35.8194 12.4495 35.9759 10.8958 35.4422 9.56733C34.5786 7.42252 32.2526 6.14369 29.0586 6.06025C27.2448 6.00513 25.3354 6.34851 23.5937 6.99477C23.5655 6.89457 23.534 6.79544 23.534 6.68961C23.534 6.39465 23.6488 6.11994 23.8549 5.91619C24.5078 5.26994 24.8715 4.37271 24.8558 3.4551C24.8401 2.52407 24.4527 1.6628 23.7659 1.03008C23.1299 0.443514 22.2945 0.140639 21.4027 0.181148C20.4323 0.223937 19.4933 0.670872 18.8256 1.40606C16.5559 3.90431 16.1934 7.55089 17.7853 10.4568C7.31395 18.4345 -2.73204 35.517 0.677119 60.2069C0.978787 62.4091 2.12268 64.3624 3.89594 65.7067C5.35841 66.8145 7.10229 67.3977 8.90371 67.3977C9.28881 67.3977 9.67498 67.3708 10.0622 67.3178C12.2655 67.0138 14.2177 65.8699 15.5609 64.0967C16.9042 62.3234 17.476 60.1337 17.1709 57.9304C15.5993 46.5368 19.3157 30.9394 28.041 21.2244L35.8094 28.9905L34.2163 30.5836L46.1853 42.5526V40.1027C46.1853 39.4813 46.6896 38.9769 47.3111 38.9769C47.9325 38.9769 48.4368 39.4813 48.4368 40.1027V44.8043L50.6886 47.056V44.6062C50.6886 43.9847 51.1929 43.4804 51.8143 43.4804C52.4358 43.4804 52.9401 43.9847 52.9401 44.6062V49.3077L55.1918 51.5594V49.1096C55.1918 48.4881 55.6962 47.9838 56.3176 47.9838C56.9391 47.9838 57.4434 48.4881 57.4434 49.1096V53.8111L59.6951 56.0628V53.6704C59.6951 53.0478 60.1995 52.5446 60.8209 52.5446C61.4424 52.5446 61.9467 53.0479 61.9467 53.6704V58.3146L64.4675 60.8353L65.2703 60.0325C66.7564 58.5453 67.5761 56.5683 67.5761 54.4664C67.5762 52.3632 66.7565 50.3861 65.2704 48.8989ZM9.03208 62.8931C6.54845 62.8931 4.52865 60.8733 4.52865 58.3897C4.52865 55.906 6.54845 53.8862 9.03208 53.8862C11.5157 53.8862 13.5355 55.906 13.5355 58.3897C13.5354 60.8734 11.5157 62.8931 9.03208 62.8931ZM20.0462 8.87386C19.9033 8.96399 19.7626 9.05628 19.6218 9.14856C18.6278 7.11415 18.9351 4.63387 20.4921 2.91923C20.7555 2.6299 21.1327 2.44748 21.5031 2.43058C21.52 2.43058 21.5369 2.42951 21.5559 2.42951C21.753 2.42951 22.0153 2.479 22.2404 2.68624C22.4701 2.89683 22.5984 3.18495 22.6041 3.49574C22.6108 3.80653 22.4915 4.09693 22.2709 4.31651C21.6359 4.94479 21.2846 5.78568 21.2824 6.68411C21.2814 7.12541 21.3634 7.5533 21.5233 7.95182C21.3545 8.04745 21.1912 8.1443 21.0336 8.2445L20.0462 8.87386ZM25.3569 17.8592C23.184 17.8592 21.4164 16.0916 21.4164 13.9188C21.4164 11.7459 23.184 9.97832 25.3569 9.97832C27.5297 9.97832 29.2974 11.7459 29.2974 13.9188C29.2974 16.0916 27.5297 17.8592 25.3569 17.8592Z" fill="#E7C368"/>
<path id="Vector_3" d="M9.03208 56.1385C7.79026 56.1385 6.78036 57.1484 6.78036 58.3903C6.78036 59.6321 7.79026 60.642 9.03208 60.642C10.2739 60.642 11.2838 59.6321 11.2838 58.3903C11.2837 57.1484 10.2739 56.1385 9.03208 56.1385Z" fill="#E7C368"/>
<path id="Vector_4" d="M25.3569 12.2303C24.4259 12.2303 23.6682 12.9881 23.6682 13.9191C23.6682 14.8501 24.4259 15.6078 25.3569 15.6078C26.2879 15.6078 27.0457 14.8501 27.0457 13.9191C27.0457 12.9881 26.2879 12.2303 25.3569 12.2303Z" fill="#E7C368"/>
</g>
</g>
</g>
</g>
<defs>
<clipPath id="clip0">
<rect width="67.5762" height="67.5762" fill="white"/>
</clipPath>
</defs>
</svg>
